<svg width="400" height="80" viewBox="0 0 400 80" fill="none" xmlns="http://www.w3.org/2000/svg">
<path d="M21.0311 58.5183L1.98022 39.4674L21.0584 20.3892L40.1503 1.29736L59.2284 20.3755L78.3203 39.4674L59.2694 58.5183C48.7948 68.9928 40.1912 77.5691 40.1503 77.5691C40.1093 77.5691 31.5057 68.9928 21.0311 58.5183Z" fill="#FDC509"/>
<path d="M21.0311 58.5183L1.98022 39.4674L21.0584 20.3892L40.1503 1.29736L59.2284 20.3755L78.3203 39.4674L59.2694 58.5183C48.7948 68.9928 40.1912 77.5691 40.1503 77.5691C40.1093 77.5691 31.5057 68.9928 21.0311 58.5183ZM21.0994 45.7494L27.3814 39.4674L21.0721 33.1581L14.7491 26.8351L8.43977 33.1444L2.11679 39.4674L8.3988 45.7494C11.8539 49.2045 14.7081 52.0314 14.7491 52.0314C14.7901 52.0314 17.6443 49.2045 21.0994 45.7494Z" fill="#A2CD55"/>
<path d="M33.5268 70.9867C29.9215 67.3677 27.0809 64.4862 27.2175 64.5954C27.4496 64.7593 28.0232 64.2267 33.7726 58.4773L40.0819 52.168L33.8409 45.9133C30.3995 42.4718 27.5999 39.5903 27.5999 39.481C27.5999 39.3718 27.5452 39.3308 27.4906 39.3718C27.436 39.4128 24.5408 36.5995 21.0857 33.1308L14.79 26.8214L27.4496 14.0662L40.1366 1.29736L59.2284 20.3755L78.3202 39.4674L59.2694 58.5183C48.7948 68.9928 40.1912 77.5691 40.1502 77.5691C40.1093 77.5691 37.1321 74.6057 33.5268 70.9867Z" fill="#979C8F"/>
<path d="M33.7726 71.1232L27.4633 64.8002L40.0819 52.0997L52.7006 39.3991L46.3912 33.0761L40.0819 26.7668L33.7316 33.1171L27.3813 39.4674L21.072 33.1581L14.7627 26.8487L27.3404 14.1755C34.2779 7.21063 40 1.5022 40.0819 1.5022C40.1639 1.5022 48.7538 10.0375 59.1874 20.4711L78.1563 39.4401L68.6924 48.9996C60.3346 57.4394 40.2458 77.4325 40.1229 77.4325C40.0956 77.4325 37.2414 74.592 33.7726 71.1232Z" fill="#936BAC"/>
<path d="M33.7589 71.1096L27.436 64.7866L46.4595 45.7767L65.4831 26.7668L71.8334 33.1171L78.1837 39.4674L68.7197 49.0269C60.3346 57.4394 40.2458 77.4325 40.1229 77.4325C40.0956 77.4325 37.2277 74.5783 33.7589 71.1096ZM21.072 33.1581L14.7627 26.8487L27.3404 14.1755C34.2779 7.21063 40 1.5022 40.0819 1.5022C40.1639 1.5022 43.0454 4.3291 46.5005 7.7842L52.7825 14.0662L40.0819 26.7668L27.3813 39.4674L21.072 33.1581Z" fill="#69BF7A"/>
<path d="M46.4595 58.5456C43.0727 55.1587 40.2868 52.2772 40.2868 52.168C40.2868 52.0587 45.9542 46.2956 52.8917 39.3718L65.4967 26.7804L71.847 33.1307L78.1973 39.481L65.5513 52.0997C58.6002 59.0508 52.8644 64.732 52.7825 64.732C52.7005 64.732 49.86 61.946 46.4595 58.5456ZM21.072 33.1581L14.7627 26.8487L27.3404 14.1755C34.2779 7.21063 40 1.5022 40.0819 1.5022C40.1638 1.5022 43.0454 4.3291 46.5005 7.7842L52.7825 14.0662L40.0819 26.7668L27.3813 39.4674L21.072 33.1581Z" fill="#EF594E"/>
<path d="M46.4595 58.5456C43.0727 55.1588 40.2867 52.2772 40.2867 52.168C40.2867 52.0587 45.9542 46.2957 52.8917 39.3718L65.4967 26.7805L71.847 33.1308L78.1973 39.4811L65.5513 52.0997C58.6002 59.0509 52.8644 64.732 52.7825 64.732C52.7005 64.732 49.86 61.9461 46.4595 58.5456ZM21.0583 33.1444L14.749 26.8351L21.0993 20.4848L27.4496 14.1345L33.6087 20.28C36.9955 23.6531 39.8224 26.521 39.877 26.6439C39.9726 26.8078 38.6343 28.2281 33.6906 33.1717L27.3813 39.4674L21.0583 33.1444Z" fill="#E7891B"/>
<path d="M46.4594 58.5456C43.0726 55.1588 40.2866 52.2773 40.2866 52.168C40.2866 52.0588 45.9541 46.2957 52.8916 39.3718L65.4966 26.7805L71.8469 33.1308L78.1972 39.4811L65.5512 52.0997C58.6 59.0509 52.8643 64.732 52.7824 64.732C52.7004 64.732 49.8599 61.9461 46.4594 58.5456Z" fill="#0094D3"/>
<path d="M46.4594 58.5456C43.0726 55.1588 40.2866 52.2773 40.2866 52.168C40.2866 52.0588 43.0999 49.1499 46.5413 45.7221L52.796 39.4811L59.1463 45.8314L65.4966 52.1817L59.2146 58.4637C55.7595 61.9188 52.8779 64.7457 52.796 64.7457C52.7141 64.7457 49.8599 61.9461 46.4594 58.5456Z" fill="#01B4B2"/>
<path d="M105.319 56.5927C99.8976 56.5791 95.2543 54.6671 91.4169 50.857C87.5657 47.0058 85.6401 42.3626 85.6401 36.941C85.6401 31.533 87.5657 26.8761 91.4169 22.9976C95.2817 19.1328 99.9249 17.1936 105.319 17.1936L105.292 17.2892C110.618 17.2892 115.275 19.2148 119.263 23.0523L113.704 28.6105C111.355 26.3025 108.569 25.1417 105.347 25.1417C102.069 25.1417 99.2967 26.3025 97.016 28.6105C94.7081 30.9594 93.5473 33.7453 93.5473 36.9683C93.5473 40.2322 94.7081 43.0181 97.016 45.3261C99.3103 47.6204 102.096 48.7675 105.347 48.7675C108.624 48.7675 111.41 47.6067 113.732 45.2988L119.29 50.857C115.439 54.6808 110.782 56.5927 105.319 56.5927Z" fill="black"/>
<path d="M141.386 15.1315L159.112 54.7627H150.659L148.037 48.8631H134.735L132.113 54.7627H123.687L141.386 15.1315ZM144.95 41.9666L141.413 33.759L137.822 41.9666H144.95Z" fill="black"/>
<path d="M184.828 41.1062L203.838 15.0222V54.7627H196.04V38.6753L184.841 54.1345L173.616 38.6753V54.7627H165.818V15.0222L184.828 41.1062Z" fill="black"/>
<path d="M228.16 15.1315L245.886 54.7627H237.433L234.811 48.8631H221.509L218.887 54.7627H210.447L228.16 15.1315ZM231.724 41.9666L228.187 33.759L224.595 41.9666H231.724Z" fill="black"/>
<path d="M266.89 16.4835C272.284 16.4835 276.927 18.409 280.833 22.2465L275.275 27.8047C272.912 25.4831 270.14 24.3087 266.944 24.3087C263.68 24.3087 260.908 25.4695 258.614 27.8047C256.306 30.1127 255.145 32.8986 255.145 36.1625C255.145 39.4264 256.306 42.2124 258.614 44.5203C260.895 46.8283 263.667 47.9891 266.944 47.9891C269.348 47.9891 271.547 47.3199 273.513 45.9679C275.329 44.7252 276.681 43.141 277.583 41.2018H266.507V33.759H286.446C286.965 40.3961 285.067 45.8314 280.792 50.0922C276.927 53.9297 272.284 55.8553 266.876 55.8553C261.413 55.8553 256.784 53.9433 252.974 50.0922C249.123 46.2684 247.197 41.6251 247.197 36.1762C247.197 30.7682 249.123 26.1113 252.974 22.2329C256.798 18.3681 261.427 16.4288 266.876 16.4288L266.89 16.4835Z" fill="black"/>
<path d="M293.493 15.9371H306.166C310.277 15.9371 313.663 17.2482 316.326 19.8839C317.624 21.1812 318.552 22.4103 319.099 23.5711C319.754 24.9778 320.082 26.6985 320.082 28.706V29.7166C320.082 32.3386 319.263 34.7968 317.624 37.1048C316.449 38.7436 314.906 39.9453 312.981 40.6964L322.008 54.7627H312.475L301.318 37.5828V54.7627H293.52L293.493 15.9371ZM306.917 34.4008C308.324 34.4008 309.539 33.8682 310.55 32.7893C311.547 31.7104 312.038 30.4267 312.038 28.9382C312.038 27.5315 311.519 26.2751 310.495 25.2099C309.43 24.1857 307.832 23.6667 305.674 23.6667H301.291V34.3871H304.295V34.4144H306.917V34.4008Z" fill="black"/>
<path d="M349.348 45.6947C350.905 44.1379 351.683 42.3079 351.683 40.2048V16.7156H359.536V40.2185C359.536 44.5476 358.006 48.2485 354.933 51.3212C351.847 54.3666 348.16 55.8962 343.858 55.8962C339.501 55.8962 335.8 54.3666 332.728 51.3212C329.655 48.2485 328.125 44.5476 328.125 40.2185V16.7156H335.978V40.2048C335.978 42.3216 336.756 44.1516 338.313 45.6947C339.856 47.2379 341.7 48.0027 343.831 48.0027C345.961 48.0027 347.791 47.2379 349.348 45.6947Z" fill="black"/>
</svg>
